HIERARCHY
ROOT Hips
{
  OFFSET 23.089 22.6015 -5.18626
  CHANNELS 6 Xposition Yposition Zposition Zrotation Xrotation Yrotation
  JOINT LeftHip
  {
    OFFSET 3.43 0 0
    CHANNELS 3 Zrotation Xrotation Yrotation
    JOINT LeftKnee
    {
      OFFSET 0 -18.47 0
      CHANNELS 3 Zrotation Xrotation Yrotation
      JOINT LeftAnkle
      {
        OFFSET 0 -17.95 0
        CHANNELS 3 Zrotation Xrotation Yrotation
        End Site
        {
          OFFSET 0 -3.12 0
        }
      }
    }
  }
  JOINT RightHip
  {
    OFFSET -3.43 0 0
    CHANNELS 3 Zrotation Xrotation Yrotation
    JOINT RightKnee
    {
      OFFSET 0 -18.47 0
      CHANNELS 3 Zrotation Xrotation Yrotation
      JOINT RightAnkle
      {
        OFFSET 0 -17.95 0
        CHANNELS 3 Zrotation Xrotation Yrotation
        End Site
        {
          OFFSET 0 -3.12 0
        }
      }
    }
  }
  JOINT Chest
  {
    OFFSET 0 4.57 0
    CHANNELS 3 Zrotation Xrotation Yrotation
    JOINT Chest2
    {
      OFFSET 0 6.57 0
      CHANNELS 3 Zrotation Xrotation Yrotation
      JOINT LeftCollar
      {
        OFFSET 1.06 4.19 1.76
        CHANNELS 3 Zrotation Xrotation Yrotation
        JOINT LeftShoulder
        {
          OFFSET 5.81 0 0
          CHANNELS 3 Zrotation Xrotation Yrotation
          JOINT LeftElbow
          {
            OFFSET 0 -12.08 0
            CHANNELS 3 Zrotation Xrotation Yrotation
            JOINT LeftWrist
            {
              OFFSET 0 -9.82 0
              CHANNELS 3 Zrotation Xrotation Yrotation
              End Site
              {
                OFFSET 0 -7.37 0
              }
            }
          }
        }
      }
      JOINT RightCollar
      {
        OFFSET -1.06 4.19 1.76
        CHANNELS 3 Zrotation Xrotation Yrotation
        JOINT RightShoulder
        {
          OFFSET -6.06 0 0
          CHANNELS 3 Zrotation Xrotation Yrotation
          JOINT RightElbow
          {
            OFFSET 0 -11.08 0
            CHANNELS 3 Zrotation Xrotation Yrotation
            JOINT RightWrist
            {
              OFFSET 0 -9.82 0
              CHANNELS 3 Zrotation Xrotation Yrotation
              End Site
              {
                OFFSET 0 -7.14001 0
              }
            }
          }
        }
      }
      JOINT Neck
      {
        OFFSET 0 4.05 0
        CHANNELS 3 Zrotation Xrotation Yrotation
        JOINT Head
        {
          OFFSET 0 5.19 0
          CHANNELS 3 Zrotation Xrotation Yrotation
          End Site
          {
            OFFSET 0 4.14001 0
          }
        }
      }
    }
  }
}
MOTION
Frames:	13
Frame Time:	0.0333333
23.089 22.6015 -5.18626 -46.137 -3.06349 -91.7607 20.5509 -38.8352 22.3425 0.000687401 87.729 -4.76413 4.99333 0.525692 -0.0229508 -18.1767 -41.7639 -21.3983 -0.00564114 84.7093 9.40617 -11.4214 5.6866 0.569202 1.23481 21.3031 -1.05924 3.31958 42.5687 -3.00866 -13.8693 -1.4386 -15.9043 60.0078 1.17015 27.7421 0.0275839 -77.4482 66.4838 6.19308 -9.70954 0.524044 -0.460048 -0.898441 10.7605 -56.1904 -29.0339 -35.8891 -0.00909137 -71.4813 -65.5654 -24.842 -0.631924 -0.150571 -0.788434 -1.17586 -2.7316 3.09222 -12.7753 -3.31615 
23.089 22.6015 -5.18626 -45.1237 -2.46143 -92.5297 21.9335 -39.4425 23.5853 -0.00318754 88.0695 -4.80354 4.87986 0.137428 -0.00588129 -17.658 -42.9154 -21.419 0.00243432 84.6563 9.6729 -11.7172 5.84824 0.600554 0.960656 21.055 -1.01032 2.65763 42.0824 -2.74572 -13.2955 -1.45409 -14.8004 60.4508 0.990632 30.8648 0.00918449 -78.3175 64.6577 6.98776 -11.643 0.719363 -0.172593 -0.963391 11.2565 -58.7902 -28.1985 -40.3659 0.0116921 -72.5464 -62.5533 -28.0557 -4.1877 -1.05665 -0.700337 -1.17614 -2.42669 2.87032 -12.5158 -2.96586 
23.089 22.6015 -5.18626 -44.7654 -2.22098 -92.8575 22.2886 -39.6884 23.8204 0.00163177 88.2882 -4.80361 4.73363 -0.109182 0.0045314 -17.8614 -43.2073 -21.9595 0.000270722 84.76 9.88213 -12.0973 5.78326 0.613276 0.819349 20.9738 -0.978836 2.31848 41.9247 -2.6014 -12.988 -1.46747 -14.5318 61.5968 0.567464 33.3248 0.0300651 -78.4993 62.4235 7.55558 -13.892 0.919539 -0.675062 -0.920724 10.872 -60.0172 -27.501 -44.112 -0.0382913 -74.0254 -59.7531 -30.1707 -4.72082 -1.26878 -0.683854 -1.17619 -2.36964 2.90723 -12.3396 -2.91192 
23.089 22.6015 -5.18626 -44.7769 -2.11174 -92.8096 22.0333 -39.7407 23.3647 -0.000458602 88.3785 -4.7133 4.57918 -0.255167 0.010201 -18.2539 -42.9715 -22.5683 -0.000161302 84.7907 10.0832 -12.3203 5.68478 0.614071 0.825687 20.984 -0.971212 2.32975 41.9451 -2.58794 -12.9331 -1.47954 -14.8328 63.0342 -0.377632 35.3445 -0.0867034 -77.6886 59.6552 7.21426 -14.9144 0.945012 -1.44435 -0.819239 10.0593 -60.4655 -26.5869 -46.3482 0.0466425 -75.6694 -57.3215 -29.1922 -3.61337 -0.93675 -0.738732 -1.17732 -2.55938 2.95028 -12.2756 -3.12399 
23.089 22.6015 -5.18626 -44.8193 -1.79052 -92.8746 22.1713 -39.6722 23.1639 -2.284e-005 88.5239 -4.69484 4.48659 -0.452813 0.0177381 -18.1109 -42.7617 -22.7428 1.17276e-006 84.719 10.1391 -12.4318 5.64155 0.614942 0.840058 21.0011 -0.954771 2.3553 41.9794 -2.55882 -12.893 -1.4818 -14.82 64.8372 -2.09725 36.4688 4.79566e-006 -74.9653 56.6302 6.40006 -15.4967 0.871712 -1.70152 -0.777253 9.75855 -61.5587 -26.4391 -46.9985 1.6791e-005 -74.6387 -53.8091 -27.044 -5.24249 -1.26157 -0.707367 -1.17878 -2.45063 3.08643 -12.2552 -3.02267 
23.089 22.6015 -5.18626 -44.8193 -1.44994 -92.975 22.3189 -39.7577 23.0087 0.00153703 88.5292 -4.56923 4.39339 -0.408213 0.0213412 -18.409 -42.5271 -23.6605 -0.000689162 84.6172 10.4972 -12.9405 5.7479 0.652486 0.843544 21.001 -0.92899 2.35075 41.9797 -2.50234 -12.8655 -1.48031 -14.8925 66.9292 -3.12733 35.6667 0.00415252 -72.6885 57.2541 6.54357 -14.6097 0.842177 -1.48788 -0.764237 9.70342 -63.1299 -26.6251 -47.6214 0.0415959 -72.7728 -51.5129 -24.0851 -4.95148 -1.05972 -0.592368 -1.18034 -2.0524 3.41742 -12.2256 -2.63098 
23.089 22.6015 -5.18626 -44.9082 -1.45777 -93.0304 22.3169 -39.7275 22.8525 -0.00848634 88.8201 -4.62028 4.23615 -0.638931 0.0242148 -18.505 -42.5113 -23.7666 -0.00117206 84.9161 10.5446 -13.0788 5.55727 0.637525 0.696719 20.9972 -0.920013 2.01507 41.9761 -2.41121 -13.1231 -1.47625 -15.2607 68.8201 -3.57543 33.8198 0.032674 -71.3618 60.5524 8.72161 -13.248 1.00995 -1.37562 -0.717873 9.41895 -64.7228 -27.7272 -47.1374 -0.0125467 -69.8259 -52.0844 -23.9237 -3.83153 -0.81069 -0.600177 -1.18126 -2.07934 3.6089 -12.0664 -2.68741 
23.089 22.6015 -5.18626 -44.9426 -1.37928 -93.1034 22.4728 -39.7124 22.8535 0.0026452 88.9581 -4.66741 4.15639 -0.726711 0.0261242 -18.2517 -42.5792 -23.5274 0.00131098 84.9764 10.4459 -13.0274 5.53588 0.632516 0.59323 20.9999 -0.910565 1.77725 41.9842 -2.34017 -13.3735 -1.47304 -15.7319 69.818 -4.04125 32.5092 -0.0205461 -70.7876 63.105 10.4731 -11.4823 1.05525 -1.26227 -0.706381 9.35905 -65.7903 -28.9573 -45.9727 -0.0681647 -67.3912 -55.538 -26.4222 -3.10802 -0.727117 -0.627993 -1.18189 -2.17553 3.68998 -11.9672 -2.80409 
23.089 22.6015 -5.18626 -44.6894 -1.29415 -93.3109 22.8794 -39.9433 23.3052 -0.00057038 88.9698 -4.66495 4.1774 -0.640742 0.0268352 -18.0249 -43.0118 -23.3675 -9.22363e-005 84.9075 10.3892 -13.0236 5.71767 0.653219 0.463392 20.939 -0.865764 1.45998 41.866 -2.17408 -13.3597 -1.48095 -16.0097 70.0123 -4.35942 31.4888 -0.0147745 -71.1577 63.6932 10.8815 -10.7694 1.03009 -1.31236 -0.761214 9.70392 -65.6705 -29.6476 -44.6818 0.048138 -66.4954 -58.1755 -27.557 -2.47184 -0.613695 -0.641429 -1.18253 -2.22194 3.7467 -12.0074 -2.86008 
23.089 22.6015 -5.18626 -44.2095 -1.37696 -93.6231 23.387 -40.3838 24.1306 0.000367814 89.0245 -4.70088 4.25835 -0.531684 0.0261152 -18.1047 -43.7984 -23.4151 -3.509e-005 84.9879 10.4223 -13.1353 5.91117 0.681155 0.239024 20.823 -0.786647 0.912122 41.6395 -1.88417 -13.0989 -1.5 -15.9699 69.692 -4.46219 30.2787 0.0400243 -72.5785 62.1735 10.1988 -11.7352 1.05033 -1.5666 -0.838594 10.1678 -64.5021 -29.767 -43.5102 -0.0300267 -67.4033 -57.2778 -24.9694 -1.79842 -0.394365 -0.654641 -1.18312 -2.26758 3.78379 -12.1438 -2.91014 
23.089 22.6015 -5.18626 -44.062 -1.39588 -93.6953 23.6737 -40.5525 24.5564 2.7173e-005 89.0151 -4.72948 4.38098 -0.402188 0.023731 -18.1608 -44.0708 -23.5135 -1.9341e-006 84.9776 10.4452 -13.1963 6.05278 0.700777 0.117669 20.8486 -0.740183 0.617703 41.6932 -1.72263 -12.9407 -1.5079 -15.8217 68.7212 -5.18348 29.6776 9.97884e-006 -74.6659 58.5766 8.91386 -12.3744 0.968268 -1.56059 -0.832459 10.1288 -63.6863 -30.0291 -42.1049 4.1363e-006 -69.2484 -53.7666 -22.2838 -2.49973 -0.492401 -0.661722 -1.1837 -2.29201 3.66898 -12.2557 -2.91975 
23.089 22.6015 -5.18626 -44.3241 -1.43275 -93.7507 23.7793 -40.2779 24.705 0.000686894 89.1665 -4.78919 4.4522 -0.498186 0.0194498 -18.1885 -43.9124 -23.4752 8.15971e-005 85.15 10.4085 -13.3079 5.97158 0.697241 -0.0639053 20.9837 -0.70241 0.194154 41.9663 -1.55383 -12.7204 -1.51321 -15.4438 67.8013 -5.80757 27.9057 -0.00888301 -77.3367 57.5865 8.69383 -13.305 1.01587 -1.03456 -0.799177 9.98842 -63.3135 -30.4252 -40.0754 -0.00163264 -71.0927 -52.4415 -19.7208 -2.17422 -0.379315 -0.592377 -1.18444 -2.05195 3.53235 -12.1023 -2.64739 
23.089 22.6015 -5.18626 -42.8409 -2.00473 -92.4033 22.8468 -42.3237 23.9485 -0.00436741 89.0198 -4.71067 4.50112 -0.218782 0.00858862 -20.2698 -44.7235 -25.8977 0.00151198 85.141 10.5268 -13.3135 5.82742 0.680665 0.22594 20.6315 -0.784068 0.874579 41.2565 -1.86528 -13.2172 -1.50244 -16.457 68.5717 -7.10064 25.3215 -0.033748 -78.5664 56.0381 9.0963 -13.6456 1.09303 -1.45706 -0.567306 8.45908 -62.1085 -30.8233 -36.7798 0.020701 -73.0265 -52.2112 -18.8363 -2.04281 -0.340316 -0.700877 -1.18466 -2.42729 3.64839 -11.9437 -3.07288 
